# xmcd
#
# Track frame offsets:
#	180
#	11477
#	24685
#	36084
#	56040
#	72753
#	88739
#	101294
#	112821
#	125274
#
# Disc length: 1886 seconds
#
# Revision: 1
# Processed by: cddbd v1.5.2PL0 Copyright (c) Steve Scherf et al.
# Submitted via: EZCDAudioConverter 2.1.3.1
#
DISCID=76075c0a
DTITLE=John Moore, Dennis Caplinger, Jim Green - Bluegrass Etc.
DYEAR=1997
DGENRE=Bluegrass
TTITLE0=John Moore, D. Caplinger, J. Green - Blues In Grey
TTITLE1=John Moore, D. Caplinger, J. Green - Ridin' My Thumb To Mexico
TTITLE2=John Moore, D. Caplinger, J. Green - Don't Try This At Home
TTITLE3=John Moore, D. Caplinger, J. Green - Old Flames
TTITLE4=John Moore, D. Caplinger, J. Green - Daddy Was A Preacher
TTITLE5=John Moore, D. Caplinger, J. Green - Oklahoma Borderline
TTITLE6=John Moore, D. Caplinger, J. Green - Jamaica Farewell
TTITLE7=John Moore, D. Caplinger, J. Green - St. Anne's Reel
TTITLE8=John Moore, D. Caplinger, J. Green - October Rose
TTITLE9=Bluegrass Etc. - Brown Mountain Light
EXTD=
EXTT0=
EXTT1=
EXTT2=
EXTT3=
EXTT4=
EXTT5=
EXTT6=
EXTT7=
EXTT8=
EXTT9=
PLAYORDER=
